o cone
v 0.000000 -1.000000 -1.000000
v 0.382683 -1.000000 -0.923880
v 0.707107 -1.000000 -0.707107
v 0.923880 -1.000000 -0.382683
v 1.000000 -1.000000 0.000000
v 0.000000 1.000000 0.000000
v 0.923880 -1.000000 0.382684
v 0.707107 -1.000000 0.707107
v 0.382683 -1.000000 0.923880
v 0.000000 -1.000000 1.000000
v -0.382683 -1.000000 0.923880
v -0.707107 -1.000000 0.707107
v -0.923880 -1.000000 0.382684
v -1.000000 -1.000000 -0.000000
v -0.923879 -1.000000 -0.382684
v -0.707107 -1.000000 -0.707107
v -0.382683 -1.000000 -0.923880
v 0.000000 -1.000000 -0.000000
vn 0.0000 -0.4834 -0.8754
vn 0.0000 1.0000 0.0000
vn 0.3350 -0.4834 -0.8088
vn 0.6190 -0.4834 -0.6190
vn 0.8088 -0.4834 -0.3350
vn 0.8754 -0.4834 0.0000
vn 0.8088 -0.4834 0.3350
vn 0.6190 -0.4834 0.6190
vn 0.3350 -0.4834 0.8088
vn 0.0000 -0.4834 0.8754
vn -0.3350 -0.4834 0.8088
vn -0.6190 -0.4834 0.6190
vn -0.8088 -0.4834 0.3350
vn -0.8754 -0.4834 0.0000
vn -0.8088 -0.4834 -0.3350
vn -0.6190 -0.4834 -0.6190
vn -0.3350 -0.4834 -0.8088
vn 0.0000 -1.0000 0.0000
s 1
f 1//1 6//2 2//3
f 2//3 6//2 3//4
f 3//4 6//2 4//5
f 4//5 6//2 5//6
f 5//6 6//2 7//7
f 7//7 6//2 8//8
f 8//8 6//2 9//9
f 9//9 6//2 10//10
f 10//10 6//2 11//11
f 11//11 6//2 12//12
f 12//12 6//2 13//13
f 13//13 6//2 14//14
f 14//14 6//2 15//15
f 15//15 6//2 16//16
f 16//16 6//2 17//17
f 17//17 6//2 1//1
f 9//9 10//10 18//18
f 10//10 11//11 18//18
f 12//12 18//18 11//11
f 13//13 18//18 12//12
f 14//14 18//18 13//13
f 15//15 18//18 14//14
f 16//16 18//18 15//15
f 17//17 18//18 16//16
f 1//1 18//18 17//17
f 2//3 18//18 1//1
f 3//4 18//18 2//3
f 4//5 18//18 3//4
f 5//6 18//18 4//5
f 7//7 18//18 5//6
f 8//8 18//18 7//7
f 9//9 18//18 8//8
